<?xml version="1.0" encoding="UTF-8" standalone="no"?>
<!-- Created with Inkscape (http://www.inkscape.org/) -->
<svg xmlns:dc="http://purl.org/dc/elements/1.1/" xmlns:cc="http://creativecommons.org/ns#" xmlns:rdf="http://www.w3.org/1999/02/22-rdf-syntax-ns#" xmlns:svg="http://www.w3.org/2000/svg" xmlns="http://www.w3.org/2000/svg" xmlns:sodipodi="http://sodipodi.sourceforge.net/DTD/sodipodi-0.dtd" xmlns:inkscape="http://www.inkscape.org/namespaces/inkscape" width="24.135519mm" height="8.4207678mm" viewBox="0 0 24.135519 8.4207678" version="1.1" id="svg7199" inkscape:version="0.92.4 5da689c313, 2019-01-14" sodipodi:docname="bidaow.svg">
  <defs id="defs7193"/>
  <sodipodi:namedview id="base" pagecolor="#ffffff" bordercolor="#666666" borderopacity="1.0" inkscape:pageopacity="0.0" inkscape:pageshadow="2" inkscape:zoom="8.7671069" inkscape:cx="44.948363" inkscape:cy="29.813758" inkscape:document-units="mm" inkscape:current-layer="layer1" showgrid="false" fit-margin-top="0" fit-margin-left="0" fit-margin-right="0" fit-margin-bottom="0" inkscape:window-width="1920" inkscape:window-height="1062" inkscape:window-x="1920" inkscape:window-y="18" inkscape:window-maximized="1" showguides="true" inkscape:guide-bbox="true">
    <sodipodi:guide position="-0.0061396872,3.4605576" orientation="1,0" id="guide7826" inkscape:locked="false"/>
  </sodipodi:namedview>
  <metadata id="metadata7196">
    <rdf:RDF>
      <cc:Work rdf:about="">
        <dc:format>image/svg+xml</dc:format>
        <dc:type rdf:resource="http://purl.org/dc/dcmitype/StillImage"/>
        <dc:title/>
      </cc:Work>
    </rdf:RDF>
  </metadata>
  <g inkscape:label="Layer 1" inkscape:groupmode="layer" id="layer1" transform="translate(-58.223393,-112.27302)">
    <g aria-label="B" style="font-style:normal;font-weight:normal;font-size:10.58333302px;line-height:1.25;font-family:sans-serif;letter-spacing:0px;word-spacing:0px;fill:#000000;fill-opacity:1;stroke:none;stroke-width:0.26458332" id="text7765">
      <path d="m 65.423513,114.56496 c 0,-0.60978 -0.222209,-1.14204 -0.661459,-1.58646 -0.45992,-0.46509 -1.012858,-0.69247 -1.658813,-0.69247 h -0.578776 l -1.741496,-0.005 v 8.33024 h 3.095418 c 0.718303,0 1.333252,-0.25839 1.839681,-0.77515 0.506429,-0.50643 0.759644,-1.12655 0.759644,-1.85002 0,-0.7183 -0.253215,-1.33325 -0.759644,-1.84484 -0.160197,-0.15503 -0.439249,-0.32557 -0.640787,-0.42375 0.149861,-0.27905 0.346232,-0.75448 0.346232,-1.15239 z m -1.550293,4.41317 h -1.095541 l -0.330729,0.005 v -2.02055 c 0.501262,0 0.935344,-0.0258 1.42627,0.005 0.516764,0.031 0.966349,0.46509 0.966349,1.01802 0,0.54777 -0.418579,0.99219 -0.966349,0.99219 z m -0.06718,-4.35115 c 0,0.42374 -0.335896,0.72347 -0.733805,0.76481 -0.268717,0.0207 -0.475423,0.0362 -0.625285,0.0413 v -1.52446 h 0.656291 c 0.392741,0 0.702799,0.3359 0.702799,0.71831 z" style="font-style:normal;font-variant:normal;font-weight:normal;font-stretch:normal;font-family:'Lemon/Milk';-inkscape-font-specification:'Lemon/Milk';fill:#1bc5f1;fill-opacity:1" id="path889"/>
    </g>
    <path style="fill:none;stroke:#1bc5f1;stroke-width:1.46500003;stroke-linecap:round;stroke-linejoin:miter;stroke-miterlimit:4;stroke-dasharray:none;stroke-opacity:1" d="m 63.771411,116.18472 h -3.93947" id="path7794-4" inkscape:connector-curvature="0"/>
    <path style="fill:none;stroke:#1bc5f1;stroke-width:1.46500003;stroke-linecap:round;stroke-linejoin:miter;stroke-miterlimit:4;stroke-dasharray:none;stroke-opacity:1" d="m 62.972077,112.99524 h -3.93947" id="path7794-5" inkscape:connector-curvature="0"/>
    <g aria-label="idao" style="font-style:normal;font-weight:normal;font-size:10.58333302px;line-height:1.25;font-family:sans-serif;letter-spacing:0px;word-spacing:0px;fill:#000000;fill-opacity:1;stroke:none;stroke-width:0.26458332" id="text7838">
      <path d="m 67.818139,113.77364 q 0.141111,0 0.246945,0.0988 0.112889,0.0917 0.112889,0.29634 0,0.19755 -0.112889,0.29633 -0.105834,0.0988 -0.246945,0.0988 -0.155222,0 -0.261055,-0.0988 -0.105834,-0.0988 -0.105834,-0.29633 0,-0.20461 0.105834,-0.29634 0.105833,-0.0988 0.261055,-0.0988 z m 0.303389,1.41816 v 3.78178 h -0.620889 v -3.78178 z" style="font-size:7.05555534px;fill:#ffffff;stroke-width:0.26458332" id="path880"/>
      <path d="m 70.660205,119.04413 q -0.705555,0 -1.128889,-0.48683 -0.423333,-0.49389 -0.423333,-1.46755 0,-0.97367 0.423333,-1.46756 0.430389,-0.50094 1.135945,-0.50094 0.437444,0 0.712611,0.16227 0.282222,0.16228 0.458611,0.39512 h 0.04233 q -0.0071,-0.0917 -0.02822,-0.26812 -0.01411,-0.18344 -0.01411,-0.28927 v -1.50989 h 0.620889 v 5.36222 h -0.500945 l -0.09172,-0.508 h -0.02822 q -0.169333,0.23989 -0.451556,0.40922 -0.282222,0.16933 -0.726722,0.16933 z m 0.09878,-0.51505 q 0.599722,0 0.839611,-0.32456 0.246944,-0.33161 0.246944,-0.99483 v -0.11289 q 0,-0.70555 -0.232833,-1.0795 -0.232833,-0.381 -0.860778,-0.381 -0.500944,0 -0.754944,0.40217 -0.246944,0.39511 -0.246944,1.06539 0,0.67733 0.246944,1.05127 0.254,0.37395 0.762,0.37395 z" style="font-size:7.05555534px;fill:#ffffff;stroke-width:0.26458332" id="path882"/>
      <path d="m 75.092748,115.1283 q 0.691444,0 1.023055,0.30339 0.331611,0.30339 0.331611,0.96661 v 2.57528 h -0.451555 l -0.119945,-0.53622 h -0.02822 q -0.246944,0.31044 -0.522111,0.45861 -0.268111,0.14816 -0.747889,0.14816 -0.515056,0 -0.853722,-0.26811 -0.338667,-0.27516 -0.338667,-0.85372 0,-0.56444 0.4445,-0.86783 0.4445,-0.31045 1.368778,-0.33867 l 0.642055,-0.0212 v -0.22578 q 0,-0.47272 -0.204611,-0.65617 -0.204611,-0.18344 -0.578555,-0.18344 -0.296334,0 -0.564445,0.0917 -0.268111,0.0847 -0.500944,0.19755 l -0.1905,-0.46566 q 0.246944,-0.13406 0.585611,-0.22578 0.338667,-0.0988 0.705556,-0.0988 z m 0.740833,1.99672 -0.557389,0.0212 q -0.705556,0.0282 -0.980722,0.22578 -0.268111,0.19755 -0.268111,0.55739 0,0.3175 0.1905,0.46566 0.197555,0.14817 0.500944,0.14817 0.479778,0 0.797278,-0.26106 0.3175,-0.26811 0.3175,-0.81844 z" style="font-size:7.05555534px;fill:#ffffff;stroke-width:0.26458332" id="path884"/>
      <path d="m 80.903329,117.07564 q 0,0.93838 -0.479778,1.45344 -0.472722,0.51505 -1.284111,0.51505 -0.500945,0 -0.896056,-0.22577 -0.388055,-0.23284 -0.613833,-0.67028 -0.225778,-0.4445 -0.225778,-1.07244 0,-0.93839 0.472722,-1.44639 0.472722,-0.508 1.284111,-0.508 0.515056,0 0.903111,0.23283 0.395112,0.22578 0.613834,0.66322 0.225778,0.43039 0.225778,1.05834 z m -2.8575,0 q 0,0.67027 0.261055,1.06538 0.268111,0.38806 0.846667,0.38806 0.5715,0 0.839611,-0.38806 0.268111,-0.39511 0.268111,-1.06538 0,-0.67028 -0.268111,-1.05128 -0.268111,-0.381 -0.846667,-0.381 -0.578555,0 -0.839611,0.381 -0.261055,0.381 -0.261055,1.05128 z" style="font-size:7.05555534px;fill:#ffffff;stroke-width:0.26458332" id="path886"/>
    </g>
  </g>
</svg>